<svg width="48" height="48" viewBox="0 0 48 48" fill="none" xmlns="http://www.w3.org/2000/svg">
<rect width="48" height="48" rx="24" fill="#F4EBFF"/>
<path d="M13 16V22M13 22H19M13 22L17.64 17.64C18.7147 16.5647 20.0444 15.7792 21.5048 15.3567C22.9652 14.9343 24.5089 14.8887 25.9917 15.2242C27.4745 15.5597 28.8482 16.2654 29.9845 17.2754C31.1209 18.2854 31.9828 19.5667 32.49 21M35 32V26M35 26H29M35 26L30.36 30.36C29.2853 31.4352 27.9556 32.2207 26.4952 32.6432C25.0348 33.0656 23.4911 33.1112 22.0083 32.7757C20.5255 32.4402 19.1518 31.7345 18.0155 30.7245C16.8791 29.7145 16.0172 28.4332 15.51 27" stroke="#7F56D9" stroke-width="2" stroke-linecap="round" stroke-linejoin="round"/>
</svg>
